<svg width="80" height="65" viewBox="0 0 80 65" fill="none" xmlns="http://www.w3.org/2000/svg">
<path d="M19.5531 3.6018C28.9474 3.6018 36.1322 6.19845 41.1073 11.3918C46.1102 16.5571 48.6117 24.026 48.6117 33.7983C48.6117 43.5707 46.0824 51.1093 41.0239 56.4143C35.9932 61.6914 28.8363 64.3299 19.5531 64.3299H0V3.6018H19.5531ZM19.5531 57.0425C26.2236 57.0425 31.3099 55.0741 34.812 51.1372C38.314 47.1725 40.065 41.3928 40.065 33.7983C40.065 26.3155 38.3279 20.6336 34.8537 16.7526C31.3794 12.8436 26.2792 10.8892 19.5531 10.8892H8.21313V57.0425H19.5531Z" fill="black"/>
<path d="M72.4956 58.7597C70.6056 60.9375 68.5906 62.529 66.4504 63.5341C64.3381 64.5114 62.0034 65 59.4464 65C53.3039 65 48.5511 63.0874 45.188 59.2622C41.825 55.4371 40.1434 50.0064 40.1434 42.9704C40.1434 35.6551 42.1307 29.9173 46.1052 25.7571C50.1076 21.5689 55.6386 19.4749 62.6982 19.4749C65.2553 19.4749 68.3543 19.8797 71.9953 20.6894V0H80V64.2461H73.6213L72.4956 58.7597ZM59.9466 57.8801C62.7538 57.8801 65.1997 57.1263 67.2843 55.6186C69.3966 54.1108 70.967 51.9888 71.9953 49.2526V27.893C69.7162 27.3346 68.0069 26.9856 66.8673 26.846C65.7278 26.6785 64.3659 26.5947 62.7816 26.5947C58.2234 26.5947 54.6797 28.0466 52.1504 30.9504C49.6212 33.8262 48.3565 37.8329 48.3565 42.9704C48.3565 47.7169 49.3571 51.3885 51.3583 53.9852C53.3873 56.5818 56.25 57.8801 59.9466 57.8801Z" fill="black"/>
</svg>
